<?xml version="1.0" standalone="no"?>
<!DOCTYPE svg PUBLIC "-//W3C//DTD SVG 20010904//EN"
 "http://www.w3.org/TR/2001/REC-SVG-20010904/DTD/svg10.dtd">
<svg version="1.0" xmlns="http://www.w3.org/2000/svg"
 width="70.000000pt" height="70.000000pt" viewBox="0 0 70.000000 70.000000"
 preserveAspectRatio="xMidYMid meet">

<g transform="translate(0.000000,70.000000) scale(0.100000,-0.100000)"
fill="#0A68C8" stroke="none">
<path d="M250 640 c-12 -17 -31 -30 -43 -30 -33 -1 -104 -36 -132 -66 -27 -29
-35 -90 -14 -111 8 -8 4 -20 -15 -46 -31 -41 -32 -65 -6 -116 40 -80 184 -201
238 -201 15 0 79 44 183 128 142 114 159 130 159 158 0 62 -114 203 -224 275
-75 49 -116 52 -146 9z m103 -11 c54 -28 198 -172 226 -226 25 -50 26 -63 6
-63 -75 0 -295 215 -295 288 0 27 10 27 63 1z m32 -185 c44 -45 102 -92 129
-106 l48 -24 -140 -113 -141 -112 -43 22 c-91 47 -211 196 -189 237 24 45 42
51 99 37 58 -15 177 -14 193 2 14 14 0 43 -21 43 -10 0 -20 -7 -24 -15 -7 -19
-117 -20 -158 -2 l-27 12 76 93 75 94 22 -44 c11 -23 57 -79 101 -124z m-231
76 c-65 -83 -72 -88 -80 -56 -8 34 16 70 64 95 62 33 66 24 16 -39z"/>
<path d="M574 168 c-55 -87 -39 -158 36 -158 74 0 93 70 40 153 -16 26 -34 47
-40 47 -5 0 -22 -19 -36 -42z m67 -43 c18 -34 21 -49 13 -62 -18 -28 -42 -39
-61 -27 -34 22 -37 39 -13 87 13 26 27 47 30 47 4 0 18 -20 31 -45z"/>
</g>
</svg>
