<?xml version="1.0" standalone="no"?>
<!DOCTYPE svg PUBLIC "-//W3C//DTD SVG 20010904//EN"
 "http://www.w3.org/TR/2001/REC-SVG-20010904/DTD/svg10.dtd">
<svg version="1.0" xmlns="http://www.w3.org/2000/svg"
 width="63.000000pt" height="70.000000pt" viewBox="0 0 63.000000 70.000000"
 preserveAspectRatio="xMidYMid meet">

<g transform="translate(0.000000,70.000000) scale(0.100000,-0.100000)"
fill="#0A68C8" stroke="none">
<path d="M105 665 c-23 -22 -25 -32 -25 -108 0 -81 -1 -84 -30 -105 l-30 -23
0 -140 c0 -77 4 -149 10 -159 5 -10 23 -23 40 -28 26 -9 30 -16 30 -46 0 -34
2 -36 34 -36 33 0 35 2 38 38 l3 37 140 0 140 0 3 -37 c3 -36 5 -38 38 -38 32
0 34 2 34 36 0 30 4 37 30 46 17 5 35 18 40 28 6 10 10 82 10 159 l0 140 -30
23 c-29 21 -30 24 -30 105 0 76 -2 86 -25 108 -24 25 -26 25 -210 25 -184 0
-186 0 -210 -25z m405 -15 c17 -17 20 -33 20 -100 0 -49 -4 -80 -10 -80 -21 0
-60 -49 -60 -75 l0 -25 -145 0 -145 0 0 25 c0 26 -39 75 -60 75 -6 0 -10 31
-10 80 0 121 -2 120 215 120 162 0 177 -2 195 -20z m-372 -228 c7 -10 12 -49
12 -109 l0 -93 165 0 165 0 0 93 c0 105 10 130 55 130 47 0 55 -23 55 -164 0
-103 -3 -131 -16 -143 -23 -24 -495 -24 -518 0 -21 20 -23 261 -4 286 24 30
61 30 86 0z m320 -129 l-3 -48 -140 0 -140 0 -3 48 -3 47 146 0 146 0 -3 -47z
m-308 -223 c0 -20 -5 -30 -15 -30 -10 0 -15 10 -15 30 0 20 5 30 15 30 10 0
15 -10 15 -30z m360 0 c0 -20 -5 -30 -15 -30 -10 0 -15 10 -15 30 0 20 5 30
15 30 10 0 15 -10 15 -30z"/>
</g>
</svg>
