<?xml version="1.0" standalone="no"?>
<!DOCTYPE svg PUBLIC "-//W3C//DTD SVG 20010904//EN"
 "http://www.w3.org/TR/2001/REC-SVG-20010904/DTD/svg10.dtd">
<svg version="1.0" xmlns="http://www.w3.org/2000/svg"
 width="62.000000pt" height="70.000000pt" viewBox="0 0 62.000000 70.000000"
 preserveAspectRatio="xMidYMid meet">

<g transform="translate(0.000000,70.000000) scale(0.100000,-0.100000)"
fill="#0A68C8" stroke="none">
<path d="M15 638 c-3 -8 -4 -141 -3 -298 l3 -285 214 0 c159 0 215 3 218 12 3
9 -20 13 -84 15 l-88 3 -3 98 c-2 82 0 97 13 97 8 0 15 7 15 15 0 12 -13 15
-55 15 -42 0 -55 -3 -55 -15 0 -9 9 -15 25 -15 l26 0 -3 -97 -3 -98 -95 0 -95
0 0 95 0 95 28 3 c35 4 35 30 0 34 -24 3 -28 8 -28 33 0 25 4 30 28 33 35 4
35 30 0 34 l-28 3 0 100 0 100 148 3 147 3 0 -106 0 -105 -75 0 c-60 0 -75 -3
-75 -15 0 -13 23 -15 150 -15 127 0 150 2 150 15 0 12 -13 15 -55 15 l-55 0 0
105 0 106 98 -3 97 -3 0 -150 0 -150 -97 -3 -98 -3 0 -74 c0 -60 3 -75 15 -75
12 0 15 13 15 60 l0 61 83 -3 82 -3 3 -93 c3 -87 1 -94 -18 -99 -35 -9 -25
-35 13 -31 l32 3 0 295 0 295 -293 3 c-230 2 -294 0 -297 -10z"/>
</g>
</svg>
