<?xml version="1.0" standalone="no"?>
<!DOCTYPE svg PUBLIC "-//W3C//DTD SVG 20010904//EN"
 "http://www.w3.org/TR/2001/REC-SVG-20010904/DTD/svg10.dtd">
<svg version="1.0" xmlns="http://www.w3.org/2000/svg"
 width="84.000000pt" height="70.000000pt" viewBox="0 0 84.000000 70.000000"
 preserveAspectRatio="xMidYMid meet">

<g transform="translate(0.000000,70.000000) scale(0.100000,-0.100000)"
fill="#0A68C8" stroke="none">
<path d="M370 647 l-25 -13 -3 -213 c-2 -189 0 -216 14 -232 16 -17 35 -19
224 -19 162 0 210 3 226 14 18 13 19 28 19 225 0 188 -2 212 -18 228 -16 16
-41 18 -215 21 -146 2 -203 -1 -222 -11z m418 -29 c14 -14 17 -384 4 -406 -7
-9 -56 -12 -213 -10 l-204 3 -3 200 c-1 110 0 205 2 212 7 18 396 19 414 1z"/>
<path d="M515 557 c-60 -28 -101 -105 -90 -166 15 -83 74 -133 154 -133 97 0
156 59 156 154 0 61 -17 94 -67 131 -33 25 -113 32 -153 14z m151 -48 c35 -32
48 -67 32 -86 -9 -11 -9 -16 3 -24 12 -7 11 -14 -6 -45 -26 -48 -83 -79 -130
-70 -62 12 -137 96 -104 117 10 6 10 11 0 23 -17 20 9 70 52 97 43 27 117 21
153 -12z"/>
<path d="M530 415 c0 -19 5 -35 10 -35 6 0 10 16 10 35 0 19 -4 35 -10 35 -5
0 -10 -16 -10 -35z"/>
<path d="M610 415 c0 -25 4 -35 13 -32 6 2 12 16 12 32 0 16 -6 30 -12 33 -9
2 -13 -8 -13 -33z"/>
<path d="M88 578 c-3 -48 -5 -53 -28 -56 -36 -5 -50 -29 -50 -86 0 -102 38
-170 102 -183 23 -5 28 -11 28 -37 0 -85 42 -145 115 -165 42 -11 431 -16 459
-5 47 18 -5 24 -209 24 -252 0 -280 6 -315 62 -11 19 -20 51 -20 75 0 37 3 42
29 48 15 3 41 20 57 36 28 29 29 34 29 127 l0 97 -32 3 c-33 3 -33 4 -33 58 0
41 -4 54 -15 54 -12 0 -15 -13 -15 -55 l0 -55 -34 0 c-35 0 -35 0 -38 52 -4
71 -26 76 -30 6z m172 -159 c0 -76 -2 -82 -29 -110 -25 -24 -38 -29 -78 -29
-54 0 -86 21 -104 67 -10 28 -12 136 -2 146 3 4 53 7 110 7 l103 0 0 -81z"/>
<path d="M783 58 c2 -7 10 -13 17 -13 7 0 15 6 18 13 2 7 -5 12 -18 12 -13 0
-20 -5 -17 -12z"/>
</g>
</svg>
