<?xml version="1.0" standalone="no"?>
<!DOCTYPE svg PUBLIC "-//W3C//DTD SVG 20010904//EN"
 "http://www.w3.org/TR/2001/REC-SVG-20010904/DTD/svg10.dtd">
<svg version="1.0" xmlns="http://www.w3.org/2000/svg"
 width="68.000000pt" height="70.000000pt" viewBox="0 0 68.000000 70.000000"
 preserveAspectRatio="xMidYMid meet">

<g transform="translate(0.000000,70.000000) scale(0.100000,-0.100000)"
fill="#0A68C8" stroke="none">
<path d="M5 669 c-3 -8 -4 -158 -3 -334 l3 -320 324 -3 c179 -1 328 1 333 6 4
4 -141 156 -322 337 -224 224 -331 324 -335 314z m80 -89 c46 -47 48 -50 32
-68 -22 -24 -9 -37 15 -15 17 15 20 15 48 -12 28 -27 29 -30 13 -47 -21 -24
-9 -36 15 -15 17 16 20 15 47 -13 28 -29 28 -30 10 -50 -14 -16 -15 -20 -4
-20 8 0 20 5 27 12 10 10 18 6 39 -15 21 -21 25 -29 15 -39 -7 -7 -12 -19 -12
-27 0 -11 4 -10 20 4 20 18 21 18 50 -10 28 -27 29 -30 13 -47 -21 -24 -9 -36
15 -15 17 16 20 15 47 -13 27 -28 27 -31 12 -48 -22 -24 -9 -37 15 -15 18 16
21 14 68 -32 28 -27 50 -53 50 -57 0 -5 -134 -7 -297 -6 l-298 3 -3 298 c-1
163 1 297 6 297 4 0 30 -22 57 -50z"/>
<path d="M120 270 l0 -140 140 0 c77 0 140 3 140 8 0 9 -263 272 -273 272 -4
0 -7 -63 -7 -140z m230 -117 c0 -2 -47 -3 -105 -3 l-105 0 0 107 0 108 105
-105 c58 -58 105 -106 105 -107z"/>
<path d="M165 671 c-2 -5 4 -35 16 -68 18 -55 34 -73 207 -246 104 -103 195
-187 203 -187 16 0 79 60 79 76 0 5 -87 96 -192 201 -175 175 -198 194 -250
212 -32 11 -60 16 -63 12z m79 -41 l29 -11 -23 -24 c-29 -31 -36 -31 -44 -1
-3 13 -9 31 -12 40 -4 11 -2 15 7 11 8 -2 27 -9 43 -15z m178 -157 c71 -70
128 -133 128 -139 0 -6 -11 -21 -25 -34 l-26 -24 -129 129 c-72 71 -130 134
-130 139 0 11 40 56 49 56 3 0 63 -57 133 -127z m148 -198 c-22 -23 -50 -34
-50 -18 0 4 12 20 27 35 18 19 30 25 37 18 6 -6 2 -18 -14 -35z m64 -18 c16
-24 -29 -70 -55 -56 -25 13 -24 28 3 56 24 26 36 26 52 0z"/>
<path d="M382 443 c21 -20 41 -34 44 -30 10 10 -46 67 -65 67 -10 0 -3 -13 21
-37z"/>
<path d="M450 379 c0 -5 5 -7 10 -4 6 3 10 8 10 11 0 2 -4 4 -10 4 -5 0 -10
-5 -10 -11z"/>
</g>
</svg>
