<?xml version="1.0" standalone="no"?>
<!DOCTYPE svg PUBLIC "-//W3C//DTD SVG 20010904//EN"
 "http://www.w3.org/TR/2001/REC-SVG-20010904/DTD/svg10.dtd">
<svg version="1.0" xmlns="http://www.w3.org/2000/svg"
 width="71.000000pt" height="70.000000pt" viewBox="0 0 71.000000 70.000000"
 preserveAspectRatio="xMidYMid meet">

<g transform="translate(0.000000,70.000000) scale(0.100000,-0.100000)"
fill="#0A68C8" stroke="none">
<path d="M486 631 l-73 -71 -156 0 -157 0 0 56 c0 53 -1 55 -22 49 -13 -4 -32
-16 -43 -26 -19 -18 -20 -35 -23 -232 -5 -334 -16 -317 213 -317 91 0 165 -4
165 -8 0 -5 -11 -19 -25 -32 -14 -13 -25 -27 -25 -32 0 -5 80 -7 178 -6 l177
3 3 177 c2 164 -3 201 -23 168 -17 -27 -25 -1 -27 93 l-3 102 -38 5 -39 5 26
24 c40 37 32 74 -22 105 -8 5 -39 -18 -86 -63z m106 25 c15 -21 16 -26 3 -36
-12 -10 -18 -8 -34 11 -14 17 -16 28 -9 37 14 17 20 15 40 -12z m-502 -316 c6
0 10 42 10 100 l0 100 147 0 147 0 -29 -30 c-16 -16 -25 -33 -21 -37 3 -4 39
25 79 65 l73 72 22 -22 22 -23 -107 -107 -107 -108 -23 22 -23 22 22 23 c12
12 18 26 14 30 -12 12 -49 -34 -71 -89 -15 -38 -28 -54 -45 -59 -14 -4 45 -7
130 -6 146 1 149 1 50 6 l-105 6 35 16 c19 9 80 62 135 118 95 97 101 101 142
101 l43 0 0 -113 0 -113 -70 -69 c-38 -38 -70 -74 -70 -80 0 -5 43 33 95 85
l95 95 0 -48 c0 -38 -3 -47 -17 -47 -17 -1 -17 -1 0 -14 22 -17 22 -36 0 -36
-17 -1 -17 -1 0 -14 21 -16 22 -36 2 -36 -8 0 -15 -4 -15 -10 0 -5 7 -10 15
-10 8 0 15 -7 15 -15 0 -8 -7 -15 -15 -15 -8 0 -15 -4 -15 -10 0 -5 7 -10 15
-10 9 0 15 -9 15 -25 l0 -25 -157 0 -157 0 54 55 c29 30 51 57 49 60 -3 3 -14
-4 -24 -15 -17 -19 -31 -20 -198 -20 -154 0 -183 2 -199 17 -10 9 -18 23 -18
32 0 26 29 61 51 61 16 0 19 7 19 45 0 25 -4 45 -10 45 -5 0 -10 -16 -10 -35
0 -31 -19 -55 -44 -55 -3 0 -6 88 -6 195 0 189 1 196 23 218 l22 22 3 -157 c1
-94 6 -158 12 -158z m470 246 c-13 -13 -55 27 -45 44 5 8 14 5 31 -11 17 -16
21 -26 14 -33z m-260 -250 c-13 -13 -45 17 -35 34 5 8 12 6 26 -6 13 -12 16
-21 9 -28z"/>
<path d="M552 157 c-29 -29 -52 -56 -52 -60 0 -4 27 -7 60 -7 l60 0 0 60 c0
33 -4 60 -8 60 -4 0 -31 -24 -60 -53z m58 -17 l0 -40 -42 0 -42 0 39 40 c21
22 40 40 42 40 2 0 3 -18 3 -40z"/>
</g>
</svg>
