<?xml version="1.0" standalone="no"?>
<!DOCTYPE svg PUBLIC "-//W3C//DTD SVG 20010904//EN"
 "http://www.w3.org/TR/2001/REC-SVG-20010904/DTD/svg10.dtd">
<svg version="1.0" xmlns="http://www.w3.org/2000/svg"
 width="63.000000pt" height="70.000000pt" viewBox="0 0 63.000000 70.000000"
 preserveAspectRatio="xMidYMid meet">

<g transform="translate(0.000000,70.000000) scale(0.100000,-0.100000)"
fill="#0A68C8" stroke="none">
<path d="M58 679 c-11 -6 -18 -22 -18 -38 0 -18 -7 -31 -17 -36 -17 -6 -17 -7
0 -19 9 -7 17 -24 17 -38 0 -46 9 -48 260 -48 254 0 260 1 260 52 0 18 5 28
15 28 12 0 15 -13 15 -55 0 -63 16 -54 -158 -85 -128 -22 -130 -23 -142 -56
-7 -18 -17 -24 -39 -24 -40 0 -53 -36 -22 -61 20 -16 21 -22 11 -86 -20 -140
-12 -177 43 -196 25 -9 63 8 82 36 13 21 14 37 3 125 -11 93 -10 103 6 121 27
29 17 55 -23 61 -36 5 -53 26 -28 35 7 3 71 16 142 29 145 26 155 33 155 107
0 49 -18 79 -46 79 -9 0 -14 11 -14 30 0 19 -7 33 -19 40 -26 13 -460 13 -483
-1z m480 -86 l-3 -68 -235 0 -235 0 -3 68 -3 67 241 0 241 0 -3 -67z m-170
-265 c-5 -14 -99 -24 -125 -14 -32 12 2 26 63 26 48 0 65 -3 62 -12z m-33 -70
c22 -127 24 -173 9 -195 -9 -15 -24 -23 -43 -23 -45 0 -55 20 -47 103 13 140
15 147 47 147 24 0 29 -5 34 -32z"/>
<path d="M95 620 c8 -14 365 -14 365 0 0 6 -69 10 -186 10 -121 0 -183 -3
-179 -10z"/>
<path d="M490 620 c0 -5 5 -10 10 -10 6 0 10 5 10 10 0 6 -4 10 -10 10 -5 0
-10 -4 -10 -10z"/>
<path d="M290 80 c0 -5 5 -10 10 -10 6 0 10 5 10 10 0 6 -4 10 -10 10 -5 0
-10 -4 -10 -10z"/>
</g>
</svg>
