<?xml version="1.0" standalone="no"?>
<!DOCTYPE svg PUBLIC "-//W3C//DTD SVG 20010904//EN"
 "http://www.w3.org/TR/2001/REC-SVG-20010904/DTD/svg10.dtd">
<svg version="1.0" xmlns="http://www.w3.org/2000/svg"
 width="76.000000pt" height="70.000000pt" viewBox="0 0 76.000000 70.000000"
 preserveAspectRatio="xMidYMid meet">

<g transform="translate(0.000000,70.000000) scale(0.100000,-0.100000)"
fill="#0A68C8" stroke="none">
<path d="M368 638 l-3 -61 -132 -56 -133 -56 0 -163 0 -163 -46 -21 c-29 -12
-43 -23 -37 -29 6 -6 26 -3 53 9 l44 19 133 -58 133 -58 133 58 133 58 44 -19
c27 -12 47 -15 53 -9 6 6 -8 17 -37 29 l-46 21 0 163 0 163 -133 56 -132 56
-3 61 c-4 80 -20 80 -24 0z m2 -113 c0 -14 5 -25 10 -25 6 0 10 12 10 26 0 17
4 24 13 21 75 -30 207 -90 204 -93 -10 -10 -212 -94 -226 -94 -18 0 -233 91
-228 96 5 6 201 92 210 93 4 1 7 -10 7 -24z m-118 -143 l113 -49 3 -146 c1
-81 -1 -147 -5 -147 -5 0 -54 19 -110 42 -94 39 -123 58 -90 58 21 0 40 17 33
29 -5 8 -16 7 -36 -4 -16 -8 -31 -15 -35 -15 -3 0 -5 63 -5 140 0 77 4 140 9
140 5 0 60 -22 123 -48z m388 -92 c0 -77 -2 -140 -5 -140 -4 0 -19 7 -35 15
-20 11 -31 12 -36 4 -7 -12 12 -29 34 -29 32 0 3 -19 -91 -58 -56 -23 -105
-42 -110 -42 -4 0 -6 66 -5 147 l3 146 110 48 c61 26 116 48 123 48 9 1 12
-33 12 -139z"/>
<path d="M370 455 c0 -8 5 -15 10 -15 6 0 10 7 10 15 0 8 -4 15 -10 15 -5 0
-10 -7 -10 -15z"/>
<path d="M230 190 c0 -5 5 -10 10 -10 6 0 10 5 10 10 0 6 -4 10 -10 10 -5 0
-10 -4 -10 -10z"/>
<path d="M510 190 c0 -5 5 -10 10 -10 6 0 10 5 10 10 0 6 -4 10 -10 10 -5 0
-10 -4 -10 -10z"/>
</g>
</svg>
