<?xml version="1.0" standalone="no"?>
<!DOCTYPE svg PUBLIC "-//W3C//DTD SVG 20010904//EN"
 "http://www.w3.org/TR/2001/REC-SVG-20010904/DTD/svg10.dtd">
<svg version="1.0" xmlns="http://www.w3.org/2000/svg"
 width="165.000000pt" height="50.000000pt" viewBox="0 0 165.000000 50.000000"
 preserveAspectRatio="xMidYMid meet">

<g transform="translate(0.000000,50.000000) scale(0.100000,-0.100000)"
fill="#0a68c8" stroke="none">
<path d="M123 378 c-100 -99 -130 -138 -105 -138 4 0 57 50 117 110 60 61 117
110 125 110 9 0 42 -27 75 -60 39 -40 63 -56 69 -50 16 16 -112 140 -143 140
-17 0 -56 -31 -138 -112z"/>
<path d="M160 365 c-46 -46 -81 -88 -77 -92 4 -4 40 25 80 65 88 88 105 90
167 27 24 -24 48 -42 53 -38 12 7 -103 123 -123 123 -8 0 -53 -38 -100 -85z"/>
<path d="M160 315 c-46 -46 -81 -88 -77 -92 4 -4 42 28 85 70 43 42 84 77 92
77 8 0 31 -16 51 -36 22 -22 42 -33 49 -29 17 10 -68 95 -95 95 -12 0 -53 -33
-105 -85z"/>
<path d="M385 320 c-16 -16 -25 -33 -22 -37 8 -7 67 45 67 59 0 16 -17 8 -45
-22z"/>
<path d="M412 297 c-25 -26 -29 -36 -20 -45 28 -28 78 -7 78 34 0 42 -24 46
-58 11z"/>
<path d="M190 230 c0 -25 4 -30 25 -30 21 0 25 5 25 30 0 25 -4 30 -25 30 -21
0 -25 -5 -25 -30z"/>
<path d="M290 230 c0 -23 4 -30 20 -30 16 0 20 7 20 30 0 23 -4 30 -20 30 -16
0 -20 -7 -20 -30z"/>
<path d="M460 242 c0 -14 49 -56 57 -49 3 4 -4 18 -17 32 -24 25 -40 32 -40
17z"/>
<path d="M190 130 c0 -25 4 -30 25 -30 21 0 25 5 25 30 0 25 -4 30 -25 30 -21
0 -25 -5 -25 -30z"/>
<path d="M290 130 c0 -23 4 -30 20 -30 16 0 20 7 20 30 0 23 -4 30 -20 30 -16
0 -20 -7 -20 -30z"/>
<path d="M120 20 c0 -6 53 -10 140 -10 87 0 140 4 140 10 0 6 -53 10 -140 10
-87 0 -140 -4 -140 -10z"/>
</g>
</svg>
